<svg width="58" height="64" viewBox="0 0 58 64" fill="none" xmlns="http://www.w3.org/2000/svg">
<path fill-rule="evenodd" clip-rule="evenodd" d="M2.86025 2.61836C0.871502 4.81336 0.422752 7.54086 0.134002 19.1809C-0.180998 31.9346 -0.0472476 32.9034 1.71275 30.6159C13.1153 15.7934 17.054 15.4284 17.614 29.1421L17.979 38.0734L22.7253 31.5984C31.3978 19.7634 35.324 21.3996 34.424 36.4759L33.8515 46.0871L38.8215 40.8621C45.234 34.1209 46.319 35.6909 47.2952 53.1159C47.9865 65.4809 48.0165 65.5759 50.004 61.8659C61.674 40.0934 60.1378 18.5046 46.2653 9.32461C35.2615 2.04211 7.29775 -2.27789 2.86025 2.61836Z" fill="white"/>
</svg>
