<svg width="70" height="72" viewBox="0 0 70 72" fill="none" xmlns="http://www.w3.org/2000/svg">
<path fill-rule="evenodd" clip-rule="evenodd" d="M30.232 2.15288C6.5803 8.20372 -5.64284 28.8412 4.27571 45.9799C21.8261 76.3064 35.8857 79.5237 54.0814 57.3725C82.3258 22.9918 69.0377 -7.77517 30.232 2.15288ZM29.2628 30.7462C29.2628 33.1795 25.6356 34.5149 23.8743 32.7313C22.8706 31.7149 22.9203 30.7901 24.0529 29.4082C25.8754 27.1854 29.2628 28.0559 29.2628 30.7462ZM44.5672 31.2137C44.5672 32.9354 43.7165 33.7968 42.0165 33.7968C40.3164 33.7968 39.4657 32.9354 39.4657 31.2137C39.4657 29.4921 40.3164 28.6307 42.0165 28.6307C43.7165 28.6307 44.5672 29.4921 44.5672 31.2137ZM18.4974 46.5882C17.4031 48.3821 14.3639 48.4222 13.2862 46.6554C12.8334 45.914 13.1803 44.4326 14.0578 43.3619C15.9504 41.0527 20.0559 44.0361 18.4974 46.5882ZM35.0772 46.5882C33.9829 48.3821 30.9437 48.4222 29.866 46.6554C29.4132 45.914 29.7601 44.4326 30.6376 43.3619C32.5302 41.0527 36.6357 44.0361 35.0772 46.5882ZM50.3752 42.9499C51.5753 44.9169 48.9685 47.212 46.5874 46.2873C45.4421 45.8417 44.9268 44.6832 45.363 43.5324C46.2328 41.2348 49.1241 40.899 50.3752 42.9499Z" fill="white"/>
</svg>
