<svg width="80" height="69" viewBox="0 0 80 69" fill="none" xmlns="http://www.w3.org/2000/svg">
<path fill-rule="evenodd" clip-rule="evenodd" d="M31.0213 14.3267C26.145 22.5955 22.1563 29.678 22.1563 30.0655C22.1563 30.4542 30.0313 30.7717 39.6563 30.7717C49.2813 30.7717 57.1563 30.3855 57.1563 29.9142C57.1563 29.0217 44.1788 5.62922 41.445 1.59547C40.0525 -0.46078 38.94 0.899221 31.0213 14.3267ZM22.1563 35.2955C22.1563 37.178 39.14 65.713 40.08 65.4105C41.4513 64.9692 57.04 38.118 57.1063 36.0842C57.1438 34.9067 52.85 34.5217 39.6563 34.5217C30.0313 34.5217 22.1563 34.8705 22.1563 35.2955ZM8.765 52.2717L0 67.6467L17.5013 67.9942C27.1263 68.1855 35.2138 68.1317 35.4713 67.873C35.9388 67.4055 20.2925 39.7967 18.4825 37.8967C17.9588 37.3455 13.5863 43.8142 8.765 52.2717ZM52.5013 52.6442L43.5662 68.2717H61.6113C71.5363 68.2717 79.6563 67.9755 79.6563 67.613C79.6563 66.6255 64.4575 40.3917 62.8375 38.5817C61.7638 37.3817 59.3525 40.6617 52.5013 52.6442Z" fill="white"/>
</svg>
